<svg width="267" height="130" viewBox="0 0 267 130" fill="none" xmlns="http://www.w3.org/2000/svg">
<mask id="mask0_18_184" style="mask-type:luminance" maskUnits="userSpaceOnUse" x="9" y="19" width="73" height="88">
<path d="M81.3892 59.7389L57.3073 83.2639L81.3892 106.789H53.8708L29.7803 83.2639L53.8708 59.7389H81.3892ZM53.8708 19.426L9.14362 63.1032L22.9071 76.5436L81.3892 19.426H53.8708Z" fill="white"/>
</mask>
<g mask="url(#mask0_18_184)">
<path d="M43.5438 96.7044L81.3892 59.739H53.8707L29.7889 83.264L43.5438 96.7044Z" fill="#39CEFD"/>
</g>
<mask id="mask1_18_184" style="mask-type:luminance" maskUnits="userSpaceOnUse" x="9" y="19" width="73" height="88">
<path d="M81.3892 59.7389L57.3073 83.2639L81.3892 106.789H53.8708L29.7803 83.2639L53.8708 59.7389H81.3892ZM53.8708 19.426L9.14362 63.1032L22.9071 76.5436L81.3892 19.426H53.8708Z" fill="white"/>
</mask>
<g mask="url(#mask1_18_184)">
<path d="M9.14362 63.1032L53.8708 19.426H81.3892L22.9071 76.5437L9.14362 63.1032Z" fill="#39CEFD"/>
</g>
<mask id="mask2_18_184" style="mask-type:luminance" maskUnits="userSpaceOnUse" x="9" y="19" width="73" height="88">
<path d="M81.3892 59.7389L57.3073 83.2639L81.3892 106.789H53.8708L29.7803 83.2639L53.8708 59.7389H81.3892ZM53.8708 19.426L9.14362 63.1032L22.9071 76.5436L81.3892 19.426H53.8708Z" fill="white"/>
</mask>
<g mask="url(#mask2_18_184)">
<path d="M53.8708 106.78H81.3892L57.3073 83.2639L43.5438 96.7043L53.8708 106.78Z" fill="#03569B"/>
</g>
<mask id="mask3_18_184" style="mask-type:luminance" maskUnits="userSpaceOnUse" x="9" y="19" width="73" height="88">
<path d="M81.3892 59.7389L57.3073 83.2639L81.3892 106.789H53.8708L29.7803 83.2639L53.8708 59.7389H81.3892ZM53.8708 19.426L9.14362 63.1032L22.9071 76.5436L81.3892 19.426H53.8708Z" fill="white"/>
</mask>
<g mask="url(#mask3_18_184)">
<path d="M57.3073 83.2639L43.5438 96.7043L63.9566 89.7991L57.3073 83.2639Z" fill="url(#paint0_linear_18_184)"/>
</g>
<mask id="mask4_18_184" style="mask-type:luminance" maskUnits="userSpaceOnUse" x="9" y="19" width="73" height="88">
<path d="M81.3892 59.7389L57.3073 83.2639L81.3892 106.789H53.8708L29.7803 83.2639L53.8708 59.7389H81.3892ZM53.8708 19.426L9.14362 63.1032L22.9071 76.5436L81.3892 19.426H53.8708Z" fill="white"/>
</mask>
<g mask="url(#mask4_18_184)">
<path d="M29.7874 83.2592L43.5512 69.8184L57.3159 83.2592L43.5512 96.7001L29.7874 83.2592Z" fill="#16B9FD"/>
</g>
<g filter="url(#filter0_d_18_184)">
<path d="M81.3892 59.7389L57.3073 83.2639L81.3892 106.789H53.8708L29.7803 83.2639L53.8708 59.7389H81.3892ZM53.8708 19.426L9.14362 63.1032L22.9071 76.5436L81.3892 19.426H53.8708Z" fill="url(#paint1_radial_18_184)" shape-rendering="crispEdges"/>
</g>
<path d="M90.1256 42.8438H114.177V47.4371H95.0069V61.3341H112.313V65.8711H95.0069V83.4536H90.1256V42.8438ZM119.997 42.8438H124.933V83.4557H119.997V42.8438ZM142.994 84.3636C139.432 84.3636 136.696 83.3424 134.785 81.2999C132.939 79.2445 132.016 76.3895 132.016 72.7351V54.5286H136.952V71.9984C136.952 74.7429 137.591 76.7651 138.869 78.0651C140.147 79.3651 141.871 80.0151 144.039 80.0151C145.705 80.0151 147.184 79.5803 148.477 78.7107C149.808 77.8412 150.814 76.7073 151.494 75.3091C152.229 73.908 152.597 72.4332 152.597 70.8847V54.5481H157.531V83.4731H152.827V79.2568H152.595C151.781 80.694 150.484 81.9037 148.703 82.8859C146.922 83.8681 145.024 84.3592 143.01 84.3592L142.994 84.3636Z" fill="#808080"/>
<path d="M176.533 83.9109C175.332 83.9109 174.209 83.7216 173.165 83.3432C172.159 82.9647 171.307 82.4541 170.609 81.8113C169.833 81.0935 169.253 80.2615 168.867 79.3153C168.479 78.3707 168.286 77.2173 168.286 75.8552V58.8967H163.116V54.5287H168.286V46.3604H173.222V54.5287H180.424V58.8967H173.222V74.6657C173.222 76.2546 173.533 77.4267 174.154 78.1822C174.889 79.0142 175.954 79.4302 177.349 79.4302C178.473 79.4302 179.558 79.1088 180.602 78.466V83.1742C180.021 83.4385 179.42 83.6277 178.8 83.7419C178.219 83.8574 177.465 83.9152 176.537 83.9152L176.533 83.9109Z" fill="#808080"/>
<path d="M197.469 83.9109C196.268 83.9109 195.145 83.7216 194.101 83.3432C193.095 82.9647 192.243 82.4541 191.545 81.8113C190.77 81.0935 190.189 80.2615 189.803 79.3153C189.415 78.3707 189.222 77.2173 189.222 75.8552V58.8967H184.052V54.5287H189.222V46.3604H194.158V54.5287H201.36V58.8967H194.158V74.6657C194.158 76.2546 194.469 77.4267 195.09 78.1822C195.825 79.0142 196.89 79.4302 198.285 79.4302C199.409 79.4302 200.494 79.1088 201.538 78.466V83.1742C200.957 83.4385 200.356 83.6277 199.736 83.7419C199.155 83.8574 198.401 83.9152 197.473 83.9152L197.469 83.9109Z" fill="#808080"/>
<path d="M219.213 84.3636C216.402 84.3636 213.865 83.7021 211.602 82.379C209.357 81.0558 207.595 79.2409 206.317 76.9341C205.078 74.5898 204.458 71.9609 204.458 69.0475C204.458 66.2496 205.038 63.6785 206.2 61.3341C207.401 58.9898 209.085 57.1178 211.254 55.7181C213.422 54.317 215.939 53.6165 218.804 53.6165C221.708 53.6165 224.225 54.2665 226.355 55.5665C228.485 56.8145 230.112 58.5536 231.236 60.7838C232.397 63.0155 232.978 65.5678 232.978 68.4408C232.978 69.0085 232.918 69.4996 232.8 69.9141H209.392C209.511 72.1068 210.053 73.96 211.019 75.4738C211.986 76.9861 213.206 78.12 214.68 78.8755C216.188 79.6323 217.756 80.0108 219.383 80.0108C223.179 80.0108 226.102 78.2717 228.154 74.7935L232.336 76.7781C231.058 79.1225 229.316 80.9757 227.109 82.3378C224.941 83.6985 222.308 84.3788 219.21 84.3788L219.213 84.3636ZM227.75 65.9296C227.673 64.7192 227.326 63.5095 226.707 62.3005C226.086 61.09 225.099 60.0688 223.745 59.2368C222.414 58.4048 220.75 57.9888 218.753 57.9888C216.431 57.9888 214.456 58.7255 212.829 60.1988C211.242 61.636 210.196 63.5456 209.692 65.9275H227.757L227.75 65.9296ZM238.698 54.5286H243.401V59.1805H243.634C244.216 57.5916 245.338 56.2872 247.002 55.2675C248.668 54.2087 250.41 53.6793 252.23 53.6793C253.585 53.6793 254.746 53.8685 255.713 54.247V59.4643C254.474 58.8576 253.08 58.5543 251.531 58.5543C250.096 58.5543 248.78 58.9515 247.581 59.746C246.38 60.5404 245.419 61.618 244.697 62.9786C244.002 64.3017 243.654 65.7462 243.654 67.312V83.4753H238.718V54.5503L238.698 54.5286Z" fill="#808080"/>
<defs>
<filter id="filter0_d_18_184" x="5.14362" y="19.426" width="80.2455" height="95.3628" filterUnits="userSpaceOnUse" color-interpolation-filters="sRGB">
<feFlood flood-opacity="0" result="BackgroundImageFix"/>
<feColorMatrix in="SourceAlpha" type="matrix" values="0 0 0 0 0 0 0 0 0 0 0 0 0 0 0 0 0 0 127 0" result="hardAlpha"/>
<feOffset dy="4"/>
<feGaussianBlur stdDeviation="2"/>
<feComposite in2="hardAlpha" operator="out"/>
<feColorMatrix type="matrix" values="0 0 0 0 0 0 0 0 0 0 0 0 0 0 0 0 0 0 0.25 0"/>
<feBlend mode="normal" in2="BackgroundImageFix" result="effect1_dropShadow_18_184"/>
<feBlend mode="normal" in="SourceGraphic" in2="effect1_dropShadow_18_184" result="shape"/>
</filter>
<linearGradient id="paint0_linear_18_184" x1="47.5605" y1="99.2981" x2="57.5677" y2="89.0503" gradientUnits="userSpaceOnUse">
<stop stop-color="#1A237E" stop-opacity="0.4"/>
<stop offset="1" stop-color="#1A237E" stop-opacity="0"/>
</linearGradient>
<radialGradient id="paint1_radial_18_184" cx="0" cy="0" r="1" gradientUnits="userSpaceOnUse" gradientTransform="translate(11.1732 25.3804) scale(109.447 106.878)">
<stop stop-color="white" stop-opacity="0.1"/>
<stop offset="1" stop-color="white" stop-opacity="0"/>
</radialGradient>
</defs>
</svg>
