<svg width="19" height="18" viewBox="0 0 19 18" fill="none" xmlns="http://www.w3.org/2000/svg">
<path fill-rule="evenodd" clip-rule="evenodd" d="M13.1905 11.7988C13.2428 11.5407 13.2703 11.2736 13.2703 11C13.2703 8.79086 11.4794 7 9.27026 7C8.99671 7 8.72957 7.02746 8.47145 7.07977L9.39419 8.00251C10.9525 8.06583 12.2044 9.31779 12.2678 10.8761L13.1905 11.7988ZM6.66337 9.51433C6.41321 9.95234 6.27026 10.4595 6.27026 11C6.27026 12.6569 7.61341 14 9.27026 14C9.81079 14 10.3179 13.857 10.7559 13.6069L11.4823 14.3332C10.8487 14.7545 10.0882 15 9.27026 15C7.06112 15 5.27026 13.2091 5.27026 11C5.27026 10.1821 5.51574 9.42156 5.93703 8.78799L6.66337 9.51433Z" fill="#B1BFC5"/>
<path fill-rule="evenodd" clip-rule="evenodd" d="M13.424 16.2751L12.6896 15.5406C11.6256 16.1196 10.469 16.5 9.27027 16.5C7.59844 16.5 6.00842 15.7599 4.6374 14.7735C3.27032 13.79 2.16332 12.5918 1.46819 11.7478C1.04383 11.2326 1 11.1435 1 11C1 10.8565 1.04383 10.7674 1.46819 10.2522C2.13747 9.43958 3.18857 8.29863 4.48598 7.33704L3.77165 6.62271C2.44017 7.63072 1.3741 8.79349 0.696301 9.61641L0.637496 9.68758C0.306969 10.087 0 10.4579 0 11C0 11.5421 0.306968 11.913 0.637495 12.3124L0.6963 12.3836C1.42126 13.2638 2.5904 14.5327 4.05339 15.5853C5.51242 16.635 7.30638 17.5 9.27027 17.5C10.7803 17.5 12.1899 16.9886 13.424 16.2751ZM6.46019 5.06861C7.34006 4.71828 8.28372 4.5 9.27027 4.5C11.2342 4.5 13.0281 5.365 14.4872 6.41472C15.9501 7.46727 17.1193 8.73623 17.8442 9.61641L17.9031 9.68758C18.2336 10.087 18.5406 10.4579 18.5406 11C18.5406 11.5421 18.2336 11.913 17.9031 12.3124L17.8442 12.3836C17.3638 12.9669 16.6882 13.721 15.8613 14.4697L15.1533 13.7617C15.9489 13.0456 16.6041 12.3164 17.0724 11.7478C17.4967 11.2326 17.5406 11.1435 17.5406 11C17.5406 10.8565 17.4967 10.7674 17.0724 10.2522C16.3772 9.4082 15.2702 8.21001 13.9031 7.22646C12.5321 6.24007 10.9421 5.5 9.27027 5.5C8.57587 5.5 7.89558 5.62768 7.23923 5.84765L6.46019 5.06861Z" fill="#B1BFC5"/>
<path d="M2.27026 1L18.2703 17" stroke="#B1BFC5"/>
</svg>
