<svg width="21" height="20" viewBox="0 0 21 20" fill="none" xmlns="http://www.w3.org/2000/svg">
<path d="M2.10004 11.2162C2.10004 9.22867 2.10004 8.2349 2.71749 7.61745C3.33494 7 4.32871 7 6.31625 7H14.6838C16.6714 7 17.6651 7 18.2826 7.61745C18.9 8.2349 18.9 9.22867 18.9 11.2162V12.6757C18.9 15.657 18.9 17.1476 17.9739 18.0738C17.0477 19 15.557 19 12.5757 19H8.42436C5.44305 19 3.95239 19 3.02621 18.0738C2.10004 17.1476 2.10004 15.657 2.10004 12.6757V11.2162Z" stroke="#43494F" stroke-width="1.05405"/>
<path d="M14.7 6V5.2C14.7 2.8804 12.8196 1 10.5 1V1C8.18039 1 6.29999 2.8804 6.29999 5.2V6" stroke="#43494F" stroke-width="1.05405" stroke-linecap="round"/>
<ellipse cx="10.5" cy="13.0001" rx="2.1" ry="2" fill="#43494F"/>
</svg>
